Coordinates
version=1
nRows=10
nColumns=63
inDegrees=yes

Units are S.I. units (second, meters, Newtons, ...)
If the header above contains a line with 'inDegrees', this indicates whether rotational values are in degrees (yes) or radians (no).

endheader
time	pelvis_tilt	pelvis_list	pelvis_rotation	pelvis_tx	pelvis_ty	pelvis_tz	hip_flexion_r	hip_adduction_r	hip_rotation_r	knee_angle_r	knee_angle_r_beta	ankle_angle_r	subtalar_angle_r	mtp_angle_r	hip_flexion_l	hip_adduction_l	hip_rotation_l	knee_angle_l	knee_angle_l_beta	ankle_angle_l	subtalar_angle_l	mtp_angle_l	L5_S1_Flex_Ext	L5_S1_Lat_Bending	L5_S1_axial_rotation	L4_L5_Flex_Ext	L4_L5_Lat_Bending	L4_L5_axial_rotation	L3_L4_Flex_Ext	L3_L4_Lat_Bending	L3_L4_axial_rotation	L2_L3_Flex_Ext	L2_L3_Lat_Bending	L2_L3_axial_rotation	L1_L2_Flex_Ext	L1_L2_Lat_Bending	L1_L2_axial_rotation	L1_T12_Flex_Ext	L1_T12_Lat_Bending	L1_T12_axial_rotation	Abs_r3	Abs_r2	Abs_r1	Abs_t1	Abs_t2	neck_flexion	neck_bending	neck_rotation	arm_flex_r	arm_add_r	arm_rot_r	elbow_flex_r	pro_sup_r	wrist_flex_r	wrist_dev_r	arm_flex_l	arm_add_l	arm_rot_l	elbow_flex_l	pro_sup_l	wrist_flex_l	wrist_dev_l
      1.52542373	     -2.82574835	     -3.49896586	     84.94608070	      0.20417850	      0.96793900	      0.46144438	     -0.25875178	      0.08113639	      0.68635175	      6.06911110	      0.10592597	     28.37545485	      8.02545750	      0.00000000	      6.31555706	      0.19119425	     -0.43080614	     16.66779176	      0.29090785	     27.74917074	    -13.77044277	      0.00000000	     -0.25734554	     -0.07293453	      1.81212938	     -0.47791641	     -0.09700292	      1.92538747	     -0.42279299	     -0.17733300	      1.92538747	     -0.29412022	     -0.17733300	      1.58561321	     -0.23897107	     -0.14872808	      1.47235512	     -0.14704724	     -0.11297558	      1.35909704	     -1.83819349	     -0.82504993	     10.07851998	      0.00000000	      0.00000000	     19.34294445	     -1.91943018	     -2.57116970	     28.09079436	     -1.48480274	    135.49087065	      1.69772582	      1.06378026	     26.04305526	    -22.85552058	     34.41613798	      3.39805317	    142.42056691	      0.37253836	      1.04360259	     28.40085839	    -24.21569400
      1.54237288	     -3.04027198	     -3.55248319	     85.39812381	      0.20365184	      0.96806605	      0.46313101	      0.05497129	     -0.12126076	      0.40819461	      6.31955138	      0.11029698	     28.65141242	      7.69542442	      0.00000000	      6.84957506	      0.41560163	     -0.15000644	     17.18410555	      0.29991922	     27.77253151	    -13.61211702	      0.00000000	     -0.26469847	     -0.09960350	      1.74377583	     -0.49157153	     -0.13247266	      1.85276182	     -0.43487312	     -0.24217595	      1.85276182	     -0.30252388	     -0.24217595	      1.52580386	     -0.24579900	     -0.20311146	      1.41681787	     -0.15124871	     -0.15428582	      1.30783188	     -1.89071470	     -1.12673473	      9.69835806	      0.00000000	      0.00000000	     19.40590838	     -2.25728901	     -2.57656658	     28.74365883	     -1.03410260	    138.67829616	      1.05228604	      1.03291980	     27.21331297	    -23.25172525	     35.30825042	      3.54219949	    141.02829822	      0.36186719	      1.09235916	     36.19926689	    -24.05832486
      1.55932203	     -3.04361007	     -3.70390371	     85.76904713	      0.20295031	      0.96793087	      0.46480401	      0.52729888	     -0.12085712	      0.06798912	      6.73755971	      0.11759260	     28.93527274	      7.56863677	      0.00000000	      7.49572298	      0.41797535	      0.03534769	     17.78127992	      0.31034188	     27.96036702	    -13.48142115	      0.00000000	     -0.25826881	     -0.09946469	      1.69257020	     -0.47963102	     -0.13228804	      1.79835584	     -0.42430984	     -0.24183845	      1.79835584	     -0.29517543	     -0.24183845	      1.48099892	     -0.23982842	     -0.20282840	      1.37521329	     -0.14757480	     -0.15407081	      1.26942765	     -1.84478832	     -1.12516450	      9.41356768	      0.00000000	      0.00000000	     19.40295382	     -3.17173231	     -3.22616952	     29.46581947	     -0.78465324	    141.15012073	      0.73558517	      1.05000078	     28.08763497	    -23.52391080	     35.74153556	      3.86162531	    140.61566665	      0.34543682	      1.04815064	     42.13132598	    -23.97076665
      1.57627119	     -3.17087295	     -3.70387930	     86.20905888	      0.20237454	      0.96771502	      0.46572781	      0.72189509	     -0.27876842	     -0.78716439	      7.07669151	      0.12351157	     29.27920339	      8.05750720	      0.00000000	      7.85484831	      0.55733891	      0.19091277	     18.22562305	      0.31809713	     28.17236590	    -13.27827393	      0.00000000	     -0.26862611	     -0.11402164	      1.54637108	     -0.49886555	     -0.15164878	      1.64301928	     -0.44132584	     -0.27723222	      1.64301928	     -0.30701278	     -0.27723222	      1.35307470	     -0.24944621	     -0.23251293	      1.25642651	     -0.15349296	     -0.17661952	      1.15977831	     -1.91876944	     -1.28983561	      8.60045206	      0.00000000	      0.00000000	     19.30336111	     -3.01363399	     -2.60360366	     30.18777059	     -0.21296169	    144.45727953	      0.55234124	      1.05097790	     26.84577534	    -23.72487679	     35.53047358	      3.88237967	    138.65435248	      0.34855867	      1.03725779	     48.36139196	    -23.83052081
      1.59322034	     -3.16284040	     -3.81466146	     86.27926707	      0.20193084	      0.96705842	      0.46650271	      1.13783176	     -0.30386426	     -1.23020847	      7.64237830	      0.13338466	     29.58925030	      8.42034911	      0.00000000	      8.29969892	      0.52826464	      0.10157231	     18.74758281	      0.32720705	     28.35933160	    -13.26572232	      0.00000000	     -0.26586160	     -0.10894690	      1.51497622	     -0.49373157	     -0.14489938	      1.60966224	     -0.43678402	     -0.26489349	      1.60966224	     -0.30385322	     -0.26489349	      1.32560420	     -0.24687908	     -0.22216452	      1.23091818	     -0.15191332	     -0.16875875	      1.13623217	     -1.89902280	     -1.23242913	      8.42584327	      0.00000000	      0.00000000	     19.25266764	     -3.46640282	     -2.73912350	     30.67435753	      0.06048261	    146.33125502	      0.47467897	      1.08888384	     26.85119653	    -23.83212682	     34.99553861	      4.20740161	    137.45249065	      0.35877374	      0.98766773	     52.29995321	    -23.78530586
      1.61016949	     -3.06728663	     -3.79922140	     86.31735947	      0.20149641	      0.96642318	      0.46668329	      1.41360935	     -0.28239074	     -2.08976976	      8.29622171	      0.14479638	     29.94236710	      9.32381538	      0.00000000	      8.49716119	      0.40818888	     -0.01516188	     19.18209071	      0.33479064	     28.53039462	    -13.22193540	      0.00000000	     -0.27581916	     -0.09133044	      1.46818317	     -0.51222376	     -0.12146949	      1.55994462	     -0.45314330	     -0.22206084	      1.55994462	     -0.31523372	     -0.22206084	      1.28466027	     -0.25612567	     -0.18624104	      1.19289883	     -0.15760307	     -0.14147086	      1.10113738	     -1.97014867	     -1.03314825	      8.16559434	      0.00000000	      0.00000000	     19.20338536	     -3.33439231	     -2.23209130	     30.94168081	      0.32929925	    148.71802291	      0.43180137	      1.11245379	     26.25893573	    -23.91167868	     34.11446373	      4.51953612	    136.18355283	      0.37377003	      0.96162998	     54.13419181	    -23.76097523
      1.62711864	     -2.92882518	     -3.88923538	     86.21203409	      0.20087734	      0.96554640	      0.46669566	      1.83588983	     -0.20289421	     -2.35881576	      9.01258505	      0.15729928	     30.24240002	      9.49861858	      0.00000000	      8.77306413	      0.25762262	     -0.17042101	     19.61787919	      0.34239658	     28.68577287	    -13.36652614	      0.00000000	     -0.27056024	     -0.06438866	      1.47397946	     -0.50245743	     -0.08563692	      1.56610317	     -0.44450342	     -0.15655459	      1.56610317	     -0.30922330	     -0.15655459	      1.28973203	     -0.25124224	     -0.13130136	      1.19760831	     -0.15459812	     -0.09973803	      1.10548459	     -1.93258477	     -0.72837740	      8.19783155	      0.00000000	      0.00000000	     19.29251449	     -3.29923480	     -1.99931159	     30.78041645	      0.37164892	    149.31094357	      0.43474030	      1.17987435	     26.19820370	    -23.92922240	     33.13827473	      4.97243976	    135.94142084	      0.38058532	      0.90342120	     53.41332767	    -23.81551230
      1.64406780	     -2.70503676	     -3.83997499	     86.06512500	      0.20033492	      0.96498283	      0.46599828	      1.94262720	     -0.06372773	     -2.73868185	      9.49535662	      0.16572524	     30.34746072	     10.07775222	      0.00000000	      8.73969056	      0.03131084	     -0.28274576	     19.85047599	      0.34645616	     28.85164897	    -13.48762236	      0.00000000	     -0.27555821	     -0.02671077	      1.47358483	     -0.51173915	     -0.03552532	      1.56568389	     -0.45271458	     -0.06494455	      1.56568389	     -0.31493548	     -0.06494455	      1.28938673	     -0.25588335	     -0.05446859	      1.19728768	     -0.15745396	     -0.04137498	      1.10518862	     -1.96828472	     -0.30215752	      8.19563677	      0.00000000	      0.00000000	     19.33304075	     -3.13341924	     -1.33842399	     30.28460493	      0.34424780	    149.40369913	      0.45506908	      1.14197941	     25.82031700	    -23.93201285	     31.92322044	      5.40330313	    135.62131802	      0.38532776	      0.89828050	     49.98552385	    -23.84543757
      1.66101695	     -2.51113402	     -3.74524318	     85.92322654	      0.19976012	      0.96437134	      0.46528090	      2.19820992	      0.03818031	     -2.87164262	     10.35298899	      0.18069375	     30.64245077	     10.21734128	      0.00000000	      8.65528549	     -0.14133706	     -0.24213981	     20.06752658	      0.35024441	     29.07948919	    -13.55981106	      0.00000000	     -0.29686862	      0.00628845	      1.42633136	     -0.55131471	      0.00836364	      1.51547707	     -0.48772545	      0.01528974	      1.51547707	     -0.33929114	      0.01528974	      1.24803994	     -0.27567220	      0.01282341	      1.15889423	     -0.16963073	      0.00974081	      1.06974852	     -2.12050285	      0.07113622	      7.93282712	      0.00000000	      0.00000000	     19.48646424	     -3.06630646	     -0.53606270	     29.45264932	      0.37204710	    147.58914298	      0.51413046	      1.00312714	     24.75504895	    -23.87529619	     30.69193071	      5.60527922	    135.50746585	      0.37390281	      0.85998020	     45.98474412	    -23.91251210
      1.67796610	     -2.24938069	     -3.68671270	     85.62709368	      0.19931063	      0.96389726	      0.46373798	      2.09631313	      0.24945005	     -2.87596485	     10.49115458	      0.18310519	     30.70647240	     10.46195798	      0.00000000	      8.46569303	     -0.38315596	     -0.32946446	     20.11173339	      0.35101597	     29.34563499	    -13.74436261	      0.00000000	     -0.29923422	      0.04661139	      1.39498671	     -0.55570787	      0.06199315	      1.48217338	     -0.49161190	      0.11333094	      1.48217338	     -0.34199479	      0.11333094	      1.22061337	     -0.27786890	      0.09504995	      1.13342670	     -0.17098243	      0.07220105	      1.04624003	     -2.13740010	      0.52727741	      7.75849757	      0.00000000	      0.00000000	     19.40780544	     -3.05109105	      0.31120650	     28.03317575	      0.38965286	    143.16932509	      0.68784626	      0.97573376	     22.75291776	    -23.74639513	     29.11077454	      5.75563268	    135.40317498	      0.37710645	      0.88233876	     39.81892152	    -24.01403311
